<svg width="191" height="32" viewBox="0 0 191 32" fill="none" xmlns="http://www.w3.org/2000/svg">
<g clip-path="url(#clip0_252_242)">
<path d="M31.9999 0H0V32H31.9999V0Z" fill="white"/>
<path d="M25.568 11.32V8.76001H16.3201V23.184H19.5921V17.6H24.3201V15.136H19.5921V11.32H25.568Z" fill="#111111"/>
<path d="M7.79988 9.75999V14.048C7.80094 14.1625 7.77943 14.2761 7.73658 14.3823C7.69373 14.4885 7.63038 14.5852 7.55015 14.6669C7.46992 14.7487 7.37438 14.8138 7.26898 14.8586C7.16358 14.9034 7.0504 14.9269 6.93588 14.928H6.43188V17.024H6.92789C7.0424 17.024 7.15579 17.0465 7.26158 17.0904C7.36738 17.1342 7.46351 17.1984 7.54448 17.2794C7.62545 17.3604 7.68968 17.4565 7.73351 17.5623C7.77733 17.6681 7.79988 17.7815 7.79988 17.896V22.136C7.79988 24.336 8.95988 25.536 11.0719 25.536H13.0399V23.136H11.8479C11.7368 23.1364 11.6262 23.1202 11.5199 23.088C11.0239 22.984 10.7199 22.584 10.7199 21.888V18.304C10.7199 17.344 10.7199 16.392 9.47188 15.952C10.7199 15.504 10.7199 14.4 10.7199 13.496V9.99999C10.6819 9.73655 10.7426 9.46836 10.8902 9.24689C11.0379 9.02542 11.2621 8.86628 11.5199 8.79999C11.6321 8.77053 11.7479 8.75706 11.8639 8.75999H13.0639V6.39999H11.0719C8.93588 6.39999 7.79988 7.59999 7.79988 9.75999Z" fill="#111111"/>
</g>
<path d="M41.7493 23V7.74667H51.2V10.008H44.5867V14.552H49.792V16.7493H44.5867V23H41.7493ZM54.567 10.008C53.7137 10.008 53.031 9.368 53.031 8.536C53.031 7.68267 53.7137 7.04267 54.567 7.04267C55.4203 7.04267 56.103 7.68267 56.103 8.536C56.103 9.368 55.4203 10.008 54.567 10.008ZM53.3083 23V11.8427H55.8897V23H53.3083ZM59.036 23V11.8427H61.6173V13.6133C62.1507 12.5253 63.388 11.608 65.2227 11.608C67.4627 11.608 69.0413 12.9093 69.0413 15.9813V23H66.46V16.216C66.46 14.5307 65.7773 13.7627 64.2413 13.7627C62.7907 13.7627 61.6173 14.6587 61.6173 16.4293V23H59.036ZM75.8338 23.2133C72.9538 23.2133 71.2685 21.8907 71.1618 19.5227H73.5938C73.7218 20.6533 74.2978 21.3147 75.8125 21.3147C77.1992 21.3147 77.8178 20.824 77.8178 19.8853C77.8178 18.968 77.0712 18.6267 75.4285 18.3493C72.4845 17.88 71.3965 17.048 71.3965 14.9573C71.3965 12.7173 73.4872 11.608 75.5778 11.608C77.8605 11.608 79.6738 12.4613 79.9512 14.9787H77.5618C77.3485 13.9547 76.7725 13.4853 75.5778 13.4853C74.4685 13.4853 73.8072 14.0187 73.8072 14.808C73.8072 15.6187 74.3405 15.9387 76.1112 16.2373C78.7352 16.6427 80.2925 17.2827 80.2925 19.6507C80.2925 21.912 78.6925 23.2133 75.8338 23.2133ZM84.6942 23L81.2808 11.8427H84.0328L86.2515 19.9067L88.6195 11.8427H90.7742L92.9502 19.9067L95.2755 11.8427H97.7928L94.2942 23H91.6702L89.6008 15.4907L87.3395 23H84.6942ZM104.359 23.2133C101.074 23.2133 98.706 21.0587 98.706 17.5387V17.368C98.706 13.912 101.074 11.608 104.253 11.608C107.026 11.608 109.522 13.2507 109.522 17.24V17.9867H101.351C101.437 20.0987 102.503 21.2933 104.423 21.2933C105.981 21.2933 106.791 20.6747 106.983 19.5867H109.479C109.117 21.9333 107.218 23.2133 104.359 23.2133ZM101.394 16.2587H106.962C106.834 14.3387 105.853 13.4853 104.253 13.4853C102.695 13.4853 101.65 14.5307 101.394 16.2587ZM116.734 23.2133C113.449 23.2133 111.081 21.0587 111.081 17.5387V17.368C111.081 13.912 113.449 11.608 116.628 11.608C119.401 11.608 121.897 13.2507 121.897 17.24V17.9867H113.726C113.812 20.0987 114.878 21.2933 116.798 21.2933C118.356 21.2933 119.166 20.6747 119.358 19.5867H121.854C121.492 21.9333 119.593 23.2133 116.734 23.2133ZM113.769 16.2587H119.337C119.209 14.3387 118.228 13.4853 116.628 13.4853C115.07 13.4853 114.025 14.5307 113.769 16.2587ZM128 23.192C125.781 23.192 124.629 21.9973 124.629 19.8853V13.784H123.136V11.8427H124.629V9.38933H127.211V11.8427H129.664V13.784H127.211V19.6507C127.211 20.632 127.68 21.08 128.491 21.08C129.003 21.08 129.387 21.016 129.749 20.8667V22.9147C129.344 23.064 128.789 23.192 128 23.192ZM140.425 23V9.98667H136.18V7.74667H147.529V9.98667H143.284V23H140.425ZM151.125 23.2133C149.077 23.2133 147.392 22.232 147.392 19.9067C147.392 17.304 149.909 16.3653 153.109 16.3653H154.496V15.7893C154.496 14.296 153.984 13.5493 152.469 13.5493C151.125 13.5493 150.464 14.1893 150.336 15.2987H147.84C148.053 12.696 150.123 11.608 152.619 11.608C155.115 11.608 157.077 12.632 157.077 15.6827V23H154.539V21.6347C153.813 22.5947 152.832 23.2133 151.125 23.2133ZM151.744 21.3573C153.323 21.3573 154.496 20.5253 154.496 19.096V17.9867H153.173C151.211 17.9867 149.952 18.4347 149.952 19.8C149.952 20.7387 150.464 21.3573 151.744 21.3573ZM166.265 23.2133C164.495 23.2133 163.215 22.3387 162.617 21.208V23H160.036V6.68H162.617V13.6347C163.236 12.568 164.623 11.608 166.265 11.608C169.06 11.608 171.215 13.6773 171.215 17.2827V17.4533C171.215 21.0373 169.145 23.2133 166.265 23.2133ZM165.625 21.1653C167.524 21.1653 168.569 19.8853 168.569 17.496V17.3253C168.569 14.8507 167.289 13.6347 165.604 13.6347C163.812 13.6347 162.532 14.8507 162.532 17.3253V17.496C162.532 19.992 163.748 21.1653 165.625 21.1653ZM173.6 23V6.68H176.181V23H173.6ZM184.234 23.2133C180.949 23.2133 178.581 21.0587 178.581 17.5387V17.368C178.581 13.912 180.949 11.608 184.128 11.608C186.901 11.608 189.397 13.2507 189.397 17.24V17.9867H181.226C181.312 20.0987 182.378 21.2933 184.298 21.2933C185.856 21.2933 186.666 20.6747 186.858 19.5867H189.354C188.992 21.9333 187.093 23.2133 184.234 23.2133ZM181.269 16.2587H186.837C186.709 14.3387 185.728 13.4853 184.128 13.4853C182.57 13.4853 181.525 14.5307 181.269 16.2587Z" fill="white"/>
<defs>
<clipPath id="clip0_252_242">
<rect width="31.9999" height="32" fill="white"/>
</clipPath>
</defs>
</svg>
